<?xml version="1.0" encoding="utf-8"?>
<!-- Generator: Adobe Illustrator 17.0.0, SVG Export Plug-In . SVG Version: 6.00 Build 0)  -->
<!DOCTYPE svg PUBLIC "-//W3C//DTD SVG 1.1//EN" "http://www.w3.org/Graphics/SVG/1.1/DTD/svg11.dtd">
<svg version="1.1" id="Layer_1" xmlns="http://www.w3.org/2000/svg" xmlns:xlink="http://www.w3.org/1999/xlink" x="0px" y="0px"
	 width="929.809px" height="464.955px" viewBox="0 0 929.809 464.955" enable-background="new 0 0 929.809 464.955"
	 xml:space="preserve">
<g>
	<rect x="0" y="0" fill="#24E202" width="38.742" height="38.742"/>
	<rect x="0" y="38.747" fill="#24E202" width="38.742" height="38.742"/>
	<rect x="0" y="77.493" fill="#24E202" width="38.742" height="38.742"/>
	<rect x="0" y="116.24" fill="#24E202" width="38.742" height="38.742"/>
	<rect x="38.742" y="0" fill="#24E202" width="38.742" height="38.742"/>
	<rect x="38.742" y="38.747" fill="#24E202" width="38.742" height="38.742"/>
	<rect x="38.742" y="77.493" fill="#24E202" width="38.742" height="38.742"/>
	<rect x="38.742" y="116.24" fill="#24E202" width="38.742" height="38.742"/>
	<rect x="77.484" y="0" fill="#24E202" width="38.742" height="38.742"/>
	<rect x="77.484" y="38.747" fill="#24E202" width="38.742" height="38.742"/>
	<rect x="77.484" y="77.493" fill="#24E202" width="38.742" height="38.742"/>
	<rect x="77.484" y="116.24" fill="#1DBE01" width="38.742" height="38.742"/>
	<rect x="116.226" y="0" fill="#24E202" width="38.742" height="38.742"/>
	<rect x="116.226" y="38.747" fill="#24E202" width="38.742" height="38.742"/>
	<rect x="116.226" y="77.493" fill="#24E202" width="38.742" height="38.742"/>
	<rect x="116.226" y="116.24" fill="#1DBE01" width="38.742" height="38.742"/>
	<rect x="154.968" y="0" fill="#24E202" width="38.742" height="38.742"/>
	<rect x="154.968" y="38.747" fill="#24E202" width="38.742" height="38.742"/>
	<rect x="154.968" y="77.493" fill="#24E202" width="38.742" height="38.742"/>
	<rect x="154.968" y="116.24" fill="#24E202" width="38.742" height="38.742"/>
	<rect x="154.968" y="154.987" fill="#1DBE01" width="38.742" height="38.742"/>
	<rect x="154.968" y="193.733" fill="#25E402" width="38.742" height="38.742"/>
	<rect x="154.968" y="232.48" fill="#25E402" width="38.742" height="38.742"/>
	<rect x="154.968" y="271.227" fill="#1DBE01" width="38.742" height="38.742"/>
	<rect x="154.968" y="309.973" fill="#1DBE01" width="38.742" height="38.742"/>
	<rect x="154.968" y="348.72" fill="#1DBE01" width="38.742" height="38.742"/>
	<rect x="154.968" y="387.467" fill="#1DBE01" width="38.742" height="38.742"/>
	<rect x="154.968" y="426.213" fill="#149600" width="38.742" height="38.742"/>
	<rect x="193.71" y="0" fill="#24E202" width="38.742" height="38.742"/>
	<rect x="193.71" y="38.747" fill="#24E202" width="38.742" height="38.742"/>
	<rect x="193.71" y="77.493" fill="#24E202" width="38.742" height="38.742"/>
	<rect x="193.71" y="116.24" fill="#1DBE01" width="38.742" height="38.742"/>
	<rect x="193.71" y="154.987" fill="#1DBE01" width="38.742" height="38.742"/>
	<rect x="193.71" y="193.733" fill="#25E402" width="38.742" height="38.742"/>
	<rect x="193.71" y="232.48" fill="#1DBE01" width="38.742" height="38.742"/>
	<rect x="193.71" y="271.227" fill="#1DBE01" width="38.742" height="38.742"/>
	<rect x="193.71" y="309.973" fill="#149600" width="38.742" height="38.742"/>
	<rect x="193.71" y="348.72" fill="#1DBE01" width="38.742" height="38.742"/>
	<rect x="193.71" y="387.467" fill="#149600" width="38.742" height="38.742"/>
	<rect x="193.71" y="426.213" fill="#1DBE01" width="38.742" height="38.742"/>
	<rect x="232.452" y="0" fill="#24E202" width="38.742" height="38.742"/>
	<rect x="232.452" y="38.747" fill="#24E202" width="38.742" height="38.742"/>
	<rect x="232.452" y="77.493" fill="#1DBE01" width="38.742" height="38.742"/>
	<rect x="232.452" y="116.24" fill="#24E202" width="38.742" height="38.742"/>
	<rect x="232.452" y="154.987" fill="#1DBE01" width="38.742" height="38.742"/>
	<rect x="232.452" y="193.733" fill="#1DBE01" width="38.742" height="38.742"/>
	<rect x="232.452" y="232.48" fill="#149600" width="38.742" height="38.742"/>
	<rect x="232.452" y="271.227" fill="#1DBE01" width="38.742" height="38.742"/>
	<rect x="232.452" y="309.973" fill="#1DBE01" width="38.742" height="38.742"/>
	<rect x="232.452" y="348.72" fill="#1DBE01" width="38.742" height="38.742"/>
	<rect x="232.452" y="387.467" fill="#149600" width="38.742" height="38.742"/>
	<rect x="232.452" y="426.213" fill="#149600" width="38.742" height="38.742"/>
	<rect x="271.194" y="0" fill="#1DBE01" width="38.742" height="38.742"/>
	<rect x="271.194" y="38.747" fill="#1DBE01" width="38.742" height="38.742"/>
	<rect x="271.194" y="77.493" fill="#24E202" width="38.742" height="38.742"/>
	<rect x="271.194" y="116.24" fill="#1DBE01" width="38.742" height="38.742"/>
	<rect x="271.194" y="154.987" fill="#1DBE01" width="38.742" height="38.742"/>
	<rect x="271.194" y="193.733" fill="#149600" width="38.742" height="38.742"/>
	<rect x="271.194" y="232.48" fill="#149600" width="38.742" height="38.742"/>
	<rect x="271.194" y="271.227" fill="#1DBE01" width="38.742" height="38.742"/>
	<rect x="271.194" y="309.973" fill="#1DBE01" width="38.742" height="38.742"/>
	<rect x="271.194" y="348.72" fill="#149600" width="38.742" height="38.742"/>
	<rect x="271.194" y="387.467" fill="#149600" width="38.742" height="38.742"/>
	<rect x="271.194" y="426.213" fill="#149600" width="38.742" height="38.742"/>
	<rect x="309.936" y="0" fill="#24E202" width="38.742" height="38.742"/>
	<rect x="309.936" y="38.747" fill="#1DBE01" width="38.742" height="38.742"/>
	<rect x="309.936" y="77.493" fill="#24E202" width="38.742" height="38.742"/>
	<rect x="309.936" y="116.24" fill="#1DBE01" width="38.742" height="38.742"/>
	<rect x="348.678" y="0" fill="#1DBE01" width="38.742" height="38.742"/>
	<rect x="348.678" y="38.747" fill="#1DBE01" width="38.742" height="38.742"/>
	<rect x="348.678" y="77.493" fill="#1DBE01" width="38.742" height="38.742"/>
	<rect x="348.678" y="116.24" fill="#1DBE01" width="38.742" height="38.742"/>
	<rect x="387.421" y="0" fill="#1DBE01" width="38.742" height="38.742"/>
	<rect x="387.421" y="38.747" fill="#1DBE01" width="38.742" height="38.742"/>
	<rect x="387.421" y="77.493" fill="#1DBE01" width="38.742" height="38.742"/>
	<rect x="387.421" y="116.24" fill="#24E202" width="38.742" height="38.742"/>
	<rect x="426.163" y="0" fill="#1DBE01" width="38.742" height="38.742"/>
	<rect x="426.163" y="38.747" fill="#1DBE01" width="38.742" height="38.742"/>
	<rect x="426.163" y="77.493" fill="#149600" width="38.742" height="38.742"/>
	<rect x="426.163" y="116.24" fill="#24E202" width="38.742" height="38.742"/>
	<rect x="464.905" y="154.987" fill="#1DBD00" width="38.742" height="38.742"/>
	<rect x="464.905" y="193.733" fill="#1DBD00" width="38.742" height="38.742"/>
	<rect x="464.905" y="232.48" fill="#1DBD00" width="38.742" height="38.742"/>
	<rect x="464.905" y="271.227" fill="#0A6300" width="38.742" height="38.742"/>
	<rect x="464.905" y="309.973" fill="#0A6300" width="38.742" height="38.742"/>
	<rect x="464.905" y="348.72" fill="#0A6300" width="38.742" height="38.742"/>
	<rect x="464.905" y="387.467" fill="#0A6300" width="38.742" height="38.742"/>
	<rect x="464.905" y="426.213" fill="#0A6300" width="38.742" height="38.742"/>
	<rect x="503.647" y="154.987" fill="#1DBD00" width="38.742" height="38.742"/>
	<rect x="503.647" y="193.733" fill="#149600" width="38.742" height="38.742"/>
	<rect x="503.647" y="232.48" fill="#149600" width="38.742" height="38.742"/>
	<rect x="503.647" y="271.227" fill="#149600" width="38.742" height="38.742"/>
	<rect x="503.647" y="309.973" fill="#0A6300" width="38.742" height="38.742"/>
	<rect x="503.647" y="348.72" fill="#0A6300" width="38.742" height="38.742"/>
	<rect x="503.647" y="387.467" fill="#0A6300" width="38.742" height="38.742"/>
	<rect x="503.647" y="426.213" fill="#0A6300" width="38.742" height="38.742"/>
	<rect x="542.389" y="154.987" fill="#1DBD00" width="38.742" height="38.742"/>
	<rect x="542.389" y="193.733" fill="#149600" width="38.742" height="38.742"/>
	<rect x="542.389" y="232.48" fill="#149600" width="38.742" height="38.742"/>
	<rect x="542.389" y="271.227" fill="#0A6300" width="38.742" height="38.742"/>
	<rect x="542.389" y="309.973" fill="#0A6300" width="38.742" height="38.742"/>
	<rect x="542.389" y="348.72" fill="#0A6300" width="38.742" height="38.742"/>
	<rect x="542.389" y="387.467" fill="#0A6300" width="38.742" height="38.742"/>
	<rect x="542.389" y="426.213" fill="#149600" width="38.742" height="38.742"/>
	<rect x="581.131" y="154.987" fill="#149600" width="38.742" height="38.742"/>
	<rect x="581.131" y="193.733" fill="#149600" width="38.742" height="38.742"/>
	<rect x="581.131" y="232.48" fill="#0A6300" width="38.742" height="38.742"/>
	<rect x="581.131" y="271.227" fill="#0A6300" width="38.742" height="38.742"/>
	<rect x="581.131" y="309.973" fill="#0A6300" width="38.742" height="38.742"/>
	<rect x="581.131" y="348.72" fill="#149600" width="38.742" height="38.742"/>
	<rect x="581.131" y="387.467" fill="#0A6300" width="38.742" height="38.742"/>
	<rect x="581.131" y="426.213" fill="#0A6300" width="38.742" height="38.742"/>
	<rect x="619.873" y="0" fill="#159700" width="38.742" height="38.742"/>
	<rect x="619.873" y="38.747" fill="#159700" width="38.742" height="38.742"/>
	<rect x="619.873" y="77.493" fill="#0A6300" width="38.742" height="38.742"/>
	<rect x="619.873" y="116.24" fill="#159700" width="38.742" height="38.742"/>
	<rect x="619.873" y="309.973" fill="#0A6300" width="38.742" height="38.742"/>
	<rect x="619.873" y="348.72" fill="#0A6300" width="38.742" height="38.742"/>
	<rect x="619.873" y="387.467" fill="#149600" width="38.742" height="38.742"/>
	<rect x="619.873" y="426.213" fill="#0A6300" width="38.742" height="38.742"/>
	<rect x="658.615" y="0" fill="#159700" width="38.742" height="38.742"/>
	<rect x="658.615" y="38.747" fill="#0A6300" width="38.742" height="38.742"/>
	<rect x="658.615" y="77.493" fill="#0A6300" width="38.742" height="38.742"/>
	<rect x="658.615" y="116.24" fill="#0A6300" width="38.742" height="38.742"/>
	<rect x="658.615" y="309.973" fill="#149600" width="38.742" height="38.742"/>
	<rect x="658.615" y="348.72" fill="#149600" width="38.742" height="38.742"/>
	<rect x="658.615" y="387.467" fill="#149600" width="38.742" height="38.742"/>
	<rect x="658.615" y="426.213" fill="#149600" width="38.742" height="38.742"/>
	<rect x="697.357" y="0" fill="#0A6300" width="38.742" height="38.742"/>
	<rect x="697.357" y="38.747" fill="#0A6300" width="38.742" height="38.742"/>
	<rect x="697.357" y="77.493" fill="#0A6300" width="38.742" height="38.742"/>
	<rect x="697.357" y="116.24" fill="#0A6300" width="38.742" height="38.742"/>
	<rect x="697.357" y="309.973" fill="#0A6300" width="38.742" height="38.742"/>
	<rect x="697.357" y="348.72" fill="#149600" width="38.742" height="38.742"/>
	<rect x="697.357" y="387.467" fill="#1DBF01" width="38.742" height="38.742"/>
	<rect x="697.357" y="426.213" fill="#149600" width="38.742" height="38.742"/>
	<rect x="736.099" y="0" fill="#0A6300" width="38.742" height="38.742"/>
	<rect x="736.099" y="38.747" fill="#149600" width="38.742" height="38.742"/>
	<rect x="736.099" y="77.493" fill="#0A6300" width="38.742" height="38.742"/>
	<rect x="736.099" y="116.24" fill="#149600" width="38.742" height="38.742"/>
	<rect x="736.099" y="309.973" fill="#149600" width="38.742" height="38.742"/>
	<rect x="736.099" y="348.72" fill="#149600" width="38.742" height="38.742"/>
	<rect x="736.099" y="387.467" fill="#149600" width="38.742" height="38.742"/>
	<rect x="736.099" y="426.213" fill="#1DBF01" width="38.742" height="38.742"/>
	<rect x="774.841" y="0" fill="#0A6300" width="38.742" height="38.742"/>
	<rect x="774.841" y="38.747" fill="#0A6300" width="38.742" height="38.742"/>
	<rect x="774.841" y="77.493" fill="#149600" width="38.742" height="38.742"/>
	<rect x="774.841" y="116.24" fill="#1DBF01" width="38.742" height="38.742"/>
	<rect x="774.841" y="309.973" fill="#149600" width="38.742" height="38.742"/>
	<rect x="774.841" y="348.72" fill="#149600" width="38.742" height="38.742"/>
	<rect x="774.841" y="387.467" fill="#149600" width="38.742" height="38.742"/>
	<rect x="774.841" y="426.213" fill="#1DBF01" width="38.742" height="38.742"/>
	<rect x="813.583" y="0" fill="#0A6300" width="38.742" height="38.742"/>
	<rect x="813.583" y="38.747" fill="#0A6300" width="38.742" height="38.742"/>
	<rect x="813.583" y="77.493" fill="#1DBF01" width="38.742" height="38.742"/>
	<rect x="813.583" y="116.24" fill="#1DBF01" width="38.742" height="38.742"/>
	<rect x="813.583" y="309.973" fill="#1DBF01" width="38.742" height="38.742"/>
	<rect x="813.583" y="348.72" fill="#149600" width="38.742" height="38.742"/>
	<rect x="813.583" y="387.467" fill="#1DBF01" width="38.742" height="38.742"/>
	<rect x="813.583" y="426.213" fill="#1DBF01" width="38.742" height="38.742"/>
	<rect x="852.325" y="0" fill="#0A6300" width="38.742" height="38.742"/>
	<rect x="852.325" y="38.747" fill="#149600" width="38.742" height="38.742"/>
	<rect x="852.325" y="77.493" fill="#1DBF01" width="38.742" height="38.742"/>
	<rect x="852.325" y="116.24" fill="#149600" width="38.742" height="38.742"/>
	<rect x="852.325" y="309.973" fill="#149600" width="38.742" height="38.742"/>
	<rect x="852.325" y="348.72" fill="#1DBF01" width="38.742" height="38.742"/>
	<rect x="852.325" y="387.467" fill="#1DBF01" width="38.742" height="38.742"/>
	<rect x="852.325" y="426.213" fill="#1DBF01" width="38.742" height="38.742"/>
	<rect x="891.067" y="0" fill="#149600" width="38.742" height="38.742"/>
	<rect x="891.067" y="38.747" fill="#149600" width="38.742" height="38.742"/>
	<rect x="891.067" y="77.493" fill="#149600" width="38.742" height="38.742"/>
	<rect x="891.067" y="116.24" fill="#1DBF01" width="38.742" height="38.742"/>
	<rect x="891.067" y="309.973" fill="#149600" width="38.742" height="38.742"/>
	<rect x="891.067" y="348.72" fill="#1DBF01" width="38.742" height="38.742"/>
	<rect x="891.067" y="387.467" fill="#1DBF01" width="38.742" height="38.742"/>
	<rect x="891.067" y="426.213" fill="#1DBF01" width="38.742" height="38.742"/>
</g>
</svg>
